<svg xmlns="http://www.w3.org/2000/svg" viewBox="0 0 24 22.175">
  <defs>
    <style>
      .cls-1 {
        fill: none;
        stroke: #fff;
        stroke-linecap: round;
        stroke-linejoin: round;
      }
    </style>
  </defs>
  <g id="binocular" transform="translate(0 -0.856)">
    <circle id="Ellipse_1" data-name="Ellipse 1" class="cls-1" cx="5" cy="5" r="5" transform="translate(0.5 12.531)"/>
    <path id="Path_1" data-name="Path 1" class="cls-1" d="M10.5,6.031v-4a2.281,2.281,0,0,0-3,0l-1.5,4-1.5,1.5-3,7"/>
    <circle id="Ellipse_2" data-name="Ellipse 2" class="cls-1" cx="5" cy="5" r="5" transform="translate(13.5 12.531)"/>
    <path id="Path_2" data-name="Path 2" class="cls-1" d="M13.5,6.031V2.094a2.281,2.281,0,0,1,3,0L18,6.031l1.5,1.5,3,7"/>
    <path id="Path_3" data-name="Path 3" class="cls-1" d="M8,10.031c0-1.1,1.791-2,4-2s4,.9,4,2"/>
    <line id="Line_1" data-name="Line 1" class="cls-1" y1="9.354" transform="translate(10.5 8.177)"/>
    <line id="Line_2" data-name="Line 2" class="cls-1" y1="9.354" transform="translate(13.5 8.177)"/>
  </g>
</svg>
